<?xml version="1.0" encoding="UTF-8"?>
<svg version="1.1" viewBox="0 0 2048 2048" width="3000" height="3000" xmlns="http://www.w3.org/2000/svg">
<path transform="translate(0)" d="m0 0h2048v2048h-2048z" fill="#FDFDFD"/>
<path transform="translate(994,455)" d="m0 0h180l1 1v321h-315v247h-321v-101l2-36 5-37 8-37 9-30 7-20 11-26 12-25 11-20 15-24 13-18 13-17 12-14 9-10 11-12 12-12 8-7 11-10 14-11 17-13 27-18 19-11 20-11 24-11 28-11 28-9 32-8 27-5 23-3z" fill="#892BE0"/>
<path transform="translate(860,1024)" d="m0 0h320v247h243v322h-110l-34-3-32-5-31-7-30-9-27-10-25-11-26-13-25-15-18-12-19-14-16-13-10-9-8-7-7-7-8-7-9-10-7-7-9-11-11-13-14-19-14-21-12-20-14-26-12-27-10-26-10-33-8-36-4-26-3-32z" fill="#892BE0"/>
<path transform="translate(1381,455)" d="m0 0 25 1 5 12 17 51 14 41 2 6 4-10 14-42 14-41 6-17h26v132h-17l-1-107-22 65-14 41-1 1h-18l-15-43-22-65-1 108h-17v-132z"/>
<path transform="translate(1257,456)" d="m0 0h108v15h-45v117h-18v-117h-45z"/>
</svg>
